<svg id="visual" viewBox="0 0 900 600" width="900" height="600" xmlns="http://www.w3.org/2000/svg" xmlns:xlink="http://www.w3.org/1999/xlink" version="1.1"><path d="M385 600L391 583.3C397 566.7 409 533.3 416.5 500C424 466.7 427 433.3 426.2 400C425.3 366.7 420.7 333.3 443.7 300C466.7 266.7 517.3 233.3 537.8 200C558.3 166.7 548.7 133.3 550.7 100C552.7 66.7 566.3 33.3 573.2 16.7L580 0L900 0L900 16.7C900 33.3 900 66.7 900 100C900 133.3 900 166.7 900 200C900 233.3 900 266.7 900 300C900 333.3 900 366.7 900 400C900 433.3 900 466.7 900 500C900 533.3 900 566.7 900 583.3L900 600Z" fill="#0066FF" stroke-linecap="round" stroke-linejoin="miter"></path></svg>